<?xml version="1.0" encoding="UTF-8" standalone="no"?>
<svg id="status-in-progress" xmlns:rdf="http://www.w3.org/1999/02/22-rdf-syntax-ns#" xmlns="http://www.w3.org/2000/svg" xml:space="preserve" height="100" width="100" version="1.2" y="0px" x="0px" xmlns:cc="http://creativecommons.org/ns#" xmlns:dc="http://purl.org/dc/elements/1.1/" viewBox="0 0 100 100"><path d="m76.954 27.158c-0.5-0.1-11.3-2.7-20.4 1.3-0.2-2.2-1.2-4.3-2.8-5.9-9-9-22.9-10.9-23.5-10.9-0.6-0.1-1.1 0.3-1.3 0.8s0 1.2 0.5 1.5c0 0.1 8.3 5.6 7.5 14.1v0.1c-0.5 3.1 0.5 6.3 2.8 8.5 1.9 1.9 4.5 2.9 7 2.9 1 0 1.9-0.1 2.8-0.4 0.5 4.8-0.4 8.5-0.4 8.5v0.3h-17.3c-2.3 0-4.2 1.9-4.2 4.2 0 2 1.4 3.7 3.2 4.1l6.8 27.2c0.1 0.6 0.6 0.9 1.2 0.9h1.8v2.8c0 0.7 0.6 1.2 1.2 1.2h16c0.7 0 1.2-0.6 1.2-1.2v-2.8h1.8c0.6 0 1.1-0.4 1.2-0.9l6.8-27.2c1.9-0.5 3.2-2.1 3.2-4.1 0-2.3-1.9-4.2-4.2-4.2h-14.7c0.2-0.9 0.7-3.1 1.8-5.5 0.5 0.4 1.1 0.7 1.8 1 0.9 0.4 1.9 0.5 2.9 0.5 1.1 0 2.2-0.2 3.2-0.7 2.3-1 4-3.1 4.6-5.6 1.7-6.3 9.3-8 9.4-8 0.6-0.1 1-0.6 1-1.2s-0.3-1.1-0.9-1.3zm-24.6 12c0.2 0.5 0.5 1 0.8 1.4-0.3 0.6-0.6 1.3-0.9 1.9 0-1.3 0-2.7-0.2-4.2l0.3 0.9z"/></svg>
